<svg width="72" height="102" viewBox="0 0 72 102" fill="none" xmlns="http://www.w3.org/2000/svg">
<path d="M9.76562 24.2727L32.4929 88.3707H33.1321L55.8594 24.2727H62.8196L36.3636 97H29.2614L2.8054 24.2727H9.76562Z" fill="#181818"/>
<path d="M9.76562 24.2727L19.1907 20.9309L16.8299 14.2727H9.76562V24.2727ZM32.4929 88.3707L23.0678 91.7126L25.4286 98.3707H32.4929V88.3707ZM33.1321 88.3707V98.3707H40.1964L42.5572 91.7126L33.1321 88.3707ZM55.8594 24.2727V14.2727H48.7951L46.4343 20.9309L55.8594 24.2727ZM62.8196 24.2727L72.2171 27.6913L77.0984 14.2727H62.8196V24.2727ZM36.3636 97V107H43.367L45.7612 100.419L36.3636 97ZM29.2614 97L19.8638 100.419L22.258 107H29.2614V97ZM2.8054 24.2727V14.2727H-11.4734L-6.59213 27.6913L2.8054 24.2727ZM0.340552 27.6146L23.0678 91.7126L41.918 85.0289L19.1907 20.9309L0.340552 27.6146ZM32.4929 98.3707H33.1321V78.3707H32.4929V98.3707ZM42.5572 91.7126L65.2844 27.6146L46.4343 20.9309L23.707 85.0289L42.5572 91.7126ZM55.8594 34.2727H62.8196V14.2727H55.8594V34.2727ZM53.4221 20.8542L26.9661 93.5815L45.7612 100.419L72.2171 27.6913L53.4221 20.8542ZM36.3636 87H29.2614V107H36.3636V87ZM38.6589 93.5815L12.2029 20.8542L-6.59213 27.6913L19.8638 100.419L38.6589 93.5815ZM2.8054 34.2727H9.76562V14.2727H2.8054V34.2727Z" fill="#181818"/>
</svg>
