<svg width="101" height="101" viewBox="0 0 101 101" fill="none" xmlns="http://www.w3.org/2000/svg">
<path d="M38.8828 37.6364L50.2464 69.6854H50.5661L61.9297 37.6364H65.4098L52.1818 74H48.6307L35.4027 37.6364H38.8828Z" fill="#181818"/>
<path d="M38.8828 37.6364L43.5953 35.9654L42.415 32.6364H38.8828V37.6364ZM50.2464 69.6854L45.5339 71.3563L46.7143 74.6854H50.2464V69.6854ZM50.5661 69.6854V74.6854H54.0982L55.2786 71.3563L50.5661 69.6854ZM61.9297 37.6364V32.6364H58.3975L57.2171 35.9654L61.9297 37.6364ZM65.4098 37.6364L70.1086 39.3456L72.5492 32.6364H65.4098V37.6364ZM52.1818 74V79H55.6835L56.8806 75.7093L52.1818 74ZM48.6307 74L43.9319 75.7093L45.129 79H48.6307V74ZM35.4027 37.6364V32.6364H28.2633L30.7039 39.3456L35.4027 37.6364ZM34.1703 39.3073L45.5339 71.3563L54.959 68.0144L43.5953 35.9654L34.1703 39.3073ZM50.2464 74.6854H50.5661V64.6854H50.2464V74.6854ZM55.2786 71.3563L66.6422 39.3073L57.2171 35.9654L45.8535 68.0144L55.2786 71.3563ZM61.9297 42.6364H65.4098V32.6364H61.9297V42.6364ZM60.711 35.9271L47.4831 72.2907L56.8806 75.7093L70.1086 39.3456L60.711 35.9271ZM52.1818 69H48.6307V79H52.1818V69ZM53.3294 72.2907L40.1015 35.9271L30.7039 39.3456L43.9319 75.7093L53.3294 72.2907ZM35.4027 42.6364H38.8828V32.6364H35.4027V42.6364Z" fill="#181818"/>
</svg>
